<mxfile host="app.diagrams.net" agent="Mozilla/5.0 (X11; Linux x86_64) AppleWebKit/537.36 (KHTML, like Gecko) Chrome/135.0.0.0 Safari/537.36" version="26.2.8">
  <diagram name="Page-1" id="0Vtb8lLMudQhmXc0Z6xO">
    <mxGraphModel dx="1044" dy="574" grid="1" gridSize="10" guides="1" tooltips="1" connect="1" arrows="1" fold="1" page="1" pageScale="1" pageWidth="827" pageHeight="1169" math="0" shadow="0">
      <root>
        <mxCell id="0" />
        <mxCell id="1" parent="0" />
        <mxCell id="tZUZp1OLZZN5CD4Irgr8-14" value="" style="rounded=1;whiteSpace=wrap;html=1;arcSize=4;fillColor=#CCCCCC;" parent="1" vertex="1">
          <mxGeometry x="270" y="330" width="440" height="200" as="geometry" />
        </mxCell>
        <mxCell id="tZUZp1OLZZN5CD4Irgr8-1" value="" style="rounded=1;whiteSpace=wrap;html=1;arcSize=4;fillColor=#CCCCCC;" parent="1" vertex="1">
          <mxGeometry x="295" y="607" width="330" height="110" as="geometry" />
        </mxCell>
        <mxCell id="tZUZp1OLZZN5CD4Irgr8-29" style="edgeStyle=orthogonalEdgeStyle;rounded=0;orthogonalLoop=1;jettySize=auto;html=1;exitX=0.25;exitY=1;exitDx=0;exitDy=0;startArrow=classic;startFill=1;strokeColor=#FF3333;" parent="1" edge="1">
          <mxGeometry relative="1" as="geometry">
            <mxPoint x="536" y="757" as="targetPoint" />
            <mxPoint x="535.5" y="697" as="sourcePoint" />
            <Array as="points">
              <mxPoint x="536" y="737" />
              <mxPoint x="536" y="737" />
            </Array>
          </mxGeometry>
        </mxCell>
        <mxCell id="tZUZp1OLZZN5CD4Irgr8-32" value="CAN-Tx" style="edgeStyle=orthogonalEdgeStyle;rounded=0;orthogonalLoop=1;jettySize=auto;html=1;exitX=1;exitY=0.25;exitDx=0;exitDy=0;entryX=0;entryY=0.25;entryDx=0;entryDy=0;labelBackgroundColor=none;" parent="1" target="tZUZp1OLZZN5CD4Irgr8-4" edge="1">
          <mxGeometry x="-0.179" y="8" relative="1" as="geometry">
            <mxPoint as="offset" />
            <mxPoint x="425" y="644.5" as="sourcePoint" />
          </mxGeometry>
        </mxCell>
        <mxCell id="tZUZp1OLZZN5CD4Irgr8-22" value="USB 2.0&lt;br&gt;1 Mbps" style="edgeStyle=orthogonalEdgeStyle;rounded=0;orthogonalLoop=1;jettySize=auto;html=1;exitX=0.5;exitY=0;exitDx=0;exitDy=0;align=left;" parent="1" source="IJEBvmcOO8WCtTdyc-s4-3" target="tZUZp1OLZZN5CD4Irgr8-16" edge="1">
          <mxGeometry x="-0.0256" y="50" relative="1" as="geometry">
            <mxPoint as="offset" />
          </mxGeometry>
        </mxCell>
        <mxCell id="tZUZp1OLZZN5CD4Irgr8-33" value="CAN-Rx" style="edgeStyle=orthogonalEdgeStyle;rounded=0;orthogonalLoop=1;jettySize=auto;html=1;exitX=0;exitY=0.75;exitDx=0;exitDy=0;entryX=1;entryY=0.75;entryDx=0;entryDy=0;labelBackgroundColor=none;" parent="1" source="tZUZp1OLZZN5CD4Irgr8-4" edge="1">
          <mxGeometry y="8" relative="1" as="geometry">
            <mxPoint as="offset" />
            <mxPoint x="425" y="679.5" as="targetPoint" />
          </mxGeometry>
        </mxCell>
        <mxCell id="tZUZp1OLZZN5CD4Irgr8-4" value="MCP2561 CAN&lt;br&gt;Transceiver" style="rounded=0;whiteSpace=wrap;html=1;" parent="1" vertex="1">
          <mxGeometry x="485" y="627" width="120" height="70" as="geometry" />
        </mxCell>
        <mxCell id="tZUZp1OLZZN5CD4Irgr8-7" value="CAN-H" style="endArrow=none;html=1;rounded=0;strokeWidth=2;strokeColor=#FF3333;" parent="1" edge="1">
          <mxGeometry x="1" y="20" width="50" height="50" relative="1" as="geometry">
            <mxPoint x="339" y="757" as="sourcePoint" />
            <mxPoint x="589" y="757" as="targetPoint" />
            <mxPoint x="20" y="20" as="offset" />
          </mxGeometry>
        </mxCell>
        <mxCell id="tZUZp1OLZZN5CD4Irgr8-8" value="CAN-L" style="endArrow=none;html=1;rounded=0;strokeWidth=2;strokeColor=#0000FF;" parent="1" edge="1">
          <mxGeometry x="1" y="20" width="50" height="50" relative="1" as="geometry">
            <mxPoint x="339" y="777" as="sourcePoint" />
            <mxPoint x="589" y="777" as="targetPoint" />
            <mxPoint x="20" y="20" as="offset" />
          </mxGeometry>
        </mxCell>
        <mxCell id="tZUZp1OLZZN5CD4Irgr8-13" value="DE9" style="edgeStyle=orthogonalEdgeStyle;rounded=0;orthogonalLoop=1;jettySize=auto;html=1;exitX=0.25;exitY=1;exitDx=0;exitDy=0;startArrow=classic;startFill=1;strokeColor=#0033ff;" parent="1" edge="1">
          <mxGeometry x="0.0262" y="-29" relative="1" as="geometry">
            <mxPoint x="548" y="777" as="targetPoint" />
            <mxPoint x="548.29" y="697" as="sourcePoint" />
            <mxPoint x="1" as="offset" />
          </mxGeometry>
        </mxCell>
        <mxCell id="tZUZp1OLZZN5CD4Irgr8-20" style="edgeStyle=orthogonalEdgeStyle;rounded=0;orthogonalLoop=1;jettySize=auto;html=1;" parent="1" source="tZUZp1OLZZN5CD4Irgr8-19" target="tZUZp1OLZZN5CD4Irgr8-17" edge="1">
          <mxGeometry relative="1" as="geometry">
            <Array as="points">
              <mxPoint x="240" y="540" />
              <mxPoint x="240" y="430" />
            </Array>
          </mxGeometry>
        </mxCell>
        <mxCell id="tZUZp1OLZZN5CD4Irgr8-19" value="DBC file" style="strokeWidth=2;html=1;shape=mxgraph.flowchart.database;whiteSpace=wrap;spacingTop=11;" parent="1" vertex="1">
          <mxGeometry x="140" y="510" width="70" height="60" as="geometry" />
        </mxCell>
        <mxCell id="tZUZp1OLZZN5CD4Irgr8-23" style="edgeStyle=orthogonalEdgeStyle;rounded=0;orthogonalLoop=1;jettySize=auto;html=1;exitX=0.5;exitY=0;exitDx=0;exitDy=0;entryX=0.5;entryY=1;entryDx=0;entryDy=0;" parent="1" source="tZUZp1OLZZN5CD4Irgr8-16" target="tZUZp1OLZZN5CD4Irgr8-17" edge="1">
          <mxGeometry relative="1" as="geometry" />
        </mxCell>
        <mxCell id="tZUZp1OLZZN5CD4Irgr8-16" value="Serial Parser" style="rounded=0;whiteSpace=wrap;html=1;" parent="1" vertex="1">
          <mxGeometry x="290" y="470" width="160" height="40" as="geometry" />
        </mxCell>
        <mxCell id="tZUZp1OLZZN5CD4Irgr8-25" style="edgeStyle=orthogonalEdgeStyle;rounded=0;orthogonalLoop=1;jettySize=auto;html=1;entryX=0.5;entryY=1;entryDx=0;entryDy=0;" parent="1" source="tZUZp1OLZZN5CD4Irgr8-17" target="tZUZp1OLZZN5CD4Irgr8-18" edge="1">
          <mxGeometry relative="1" as="geometry" />
        </mxCell>
        <mxCell id="tZUZp1OLZZN5CD4Irgr8-17" value="cantools DBC Parser" style="rounded=0;whiteSpace=wrap;html=1;" parent="1" vertex="1">
          <mxGeometry x="290" y="410" width="160" height="40" as="geometry" />
        </mxCell>
        <mxCell id="tZUZp1OLZZN5CD4Irgr8-28" style="edgeStyle=orthogonalEdgeStyle;rounded=0;orthogonalLoop=1;jettySize=auto;html=1;exitX=0;exitY=0.5;exitDx=0;exitDy=0;" parent="1" source="tZUZp1OLZZN5CD4Irgr8-18" target="tZUZp1OLZZN5CD4Irgr8-26" edge="1">
          <mxGeometry relative="1" as="geometry" />
        </mxCell>
        <mxCell id="tZUZp1OLZZN5CD4Irgr8-18" value="Real-time Graph" style="rounded=0;whiteSpace=wrap;html=1;" parent="1" vertex="1">
          <mxGeometry x="290" y="350" width="160" height="40" as="geometry" />
        </mxCell>
        <mxCell id="-DPr65xJuDxyK6fJzUAR-2" value="" style="edgeStyle=orthogonalEdgeStyle;rounded=0;orthogonalLoop=1;jettySize=auto;html=1;" parent="1" source="tZUZp1OLZZN5CD4Irgr8-26" target="tZUZp1OLZZN5CD4Irgr8-19" edge="1">
          <mxGeometry relative="1" as="geometry" />
        </mxCell>
        <mxCell id="-DPr65xJuDxyK6fJzUAR-3" value="" style="edgeStyle=orthogonalEdgeStyle;rounded=0;orthogonalLoop=1;jettySize=auto;html=1;" parent="1" source="tZUZp1OLZZN5CD4Irgr8-26" target="tZUZp1OLZZN5CD4Irgr8-19" edge="1">
          <mxGeometry relative="1" as="geometry" />
        </mxCell>
        <mxCell id="tZUZp1OLZZN5CD4Irgr8-26" value="" style="shape=umlActor;verticalLabelPosition=bottom;verticalAlign=top;html=1;outlineConnect=0;" parent="1" vertex="1">
          <mxGeometry x="160" y="340" width="30" height="60" as="geometry" />
        </mxCell>
        <mxCell id="tZUZp1OLZZN5CD4Irgr8-30" value="CAN-DAQ Hardware" style="text;html=1;align=center;verticalAlign=middle;resizable=0;points=[];autosize=1;strokeColor=none;fillColor=none;" parent="1" vertex="1">
          <mxGeometry x="500" y="577" width="130" height="30" as="geometry" />
        </mxCell>
        <mxCell id="tZUZp1OLZZN5CD4Irgr8-31" value="PC Running CAN-DAQ Software" style="text;html=1;align=center;verticalAlign=middle;resizable=0;points=[];autosize=1;strokeColor=none;fillColor=none;" parent="1" vertex="1">
          <mxGeometry x="270" y="300" width="200" height="30" as="geometry" />
        </mxCell>
        <mxCell id="tZUZp1OLZZN5CD4Irgr8-34" value="CAN 2.0 bus&lt;br&gt;(up to 1 Mbps)" style="text;html=1;align=left;verticalAlign=middle;resizable=0;points=[];autosize=1;strokeColor=none;fillColor=none;" parent="1" vertex="1">
          <mxGeometry x="339" y="782" width="100" height="40" as="geometry" />
        </mxCell>
        <mxCell id="IJEBvmcOO8WCtTdyc-s4-1" value="SQLite&lt;div&gt;Database&lt;/div&gt;" style="strokeWidth=2;html=1;shape=mxgraph.flowchart.database;whiteSpace=wrap;spacingTop=23;" parent="1" vertex="1">
          <mxGeometry x="560" y="380" width="120" height="100" as="geometry" />
        </mxCell>
        <mxCell id="IJEBvmcOO8WCtTdyc-s4-2" value="Logging" style="edgeStyle=orthogonalEdgeStyle;rounded=0;orthogonalLoop=1;jettySize=auto;html=1;exitX=1;exitY=0.5;exitDx=0;exitDy=0;entryX=0;entryY=0.5;entryDx=0;entryDy=0;entryPerimeter=0;labelBackgroundColor=none;startArrow=classic;startFill=1;" parent="1" source="tZUZp1OLZZN5CD4Irgr8-17" target="IJEBvmcOO8WCtTdyc-s4-1" edge="1">
          <mxGeometry x="0.0909" y="-10" relative="1" as="geometry">
            <mxPoint as="offset" />
          </mxGeometry>
        </mxCell>
        <mxCell id="IJEBvmcOO8WCtTdyc-s4-3" value="&lt;span style=&quot;color: rgb(0, 0, 0); font-family: Helvetica; font-size: 12px; font-style: normal; font-variant-ligatures: normal; font-variant-caps: normal; font-weight: 400; letter-spacing: normal; orphans: 2; text-align: center; text-indent: 0px; text-transform: none; widows: 2; word-spacing: 0px; -webkit-text-stroke-width: 0px; white-space: normal; background-color: rgb(251, 251, 251); text-decoration-thickness: initial; text-decoration-style: initial; text-decoration-color: initial; display: inline !important; float: none;&quot;&gt;ESP32-S3&lt;/span&gt;&lt;br style=&quot;forced-color-adjust: none; color: rgb(0, 0, 0); font-family: Helvetica; font-size: 12px; font-style: normal; font-variant-ligatures: normal; font-variant-caps: normal; font-weight: 400; letter-spacing: normal; orphans: 2; text-align: center; text-indent: 0px; text-transform: none; widows: 2; word-spacing: 0px; -webkit-text-stroke-width: 0px; white-space: normal; background-color: rgb(251, 251, 251); text-decoration-thickness: initial; text-decoration-style: initial; text-decoration-color: initial;&quot;&gt;&lt;span style=&quot;color: rgb(0, 0, 0); font-family: Helvetica; font-size: 12px; font-style: normal; font-variant-ligatures: normal; font-variant-caps: normal; font-weight: 400; letter-spacing: normal; orphans: 2; text-align: center; text-indent: 0px; text-transform: none; widows: 2; word-spacing: 0px; -webkit-text-stroke-width: 0px; white-space: normal; background-color: rgb(251, 251, 251); text-decoration-thickness: initial; text-decoration-style: initial; text-decoration-color: initial; display: inline !important; float: none;&quot;&gt;Microcontroller&lt;/span&gt;&lt;div&gt;&lt;span style=&quot;color: rgb(0, 0, 0); font-family: Helvetica; font-size: 12px; font-style: normal; font-variant-ligatures: normal; font-variant-caps: normal; font-weight: 400; letter-spacing: normal; orphans: 2; text-align: center; text-indent: 0px; text-transform: none; widows: 2; word-spacing: 0px; -webkit-text-stroke-width: 0px; white-space: normal; background-color: rgb(251, 251, 251); text-decoration-thickness: initial; text-decoration-style: initial; text-decoration-color: initial; display: inline !important; float: none;&quot;&gt;with USB to&lt;br&gt;UART bridge&lt;/span&gt;&lt;/div&gt;" style="rounded=0;whiteSpace=wrap;html=1;" parent="1" vertex="1">
          <mxGeometry x="315" y="627" width="110" height="70" as="geometry" />
        </mxCell>
        <mxCell id="-DPr65xJuDxyK6fJzUAR-1" style="edgeStyle=orthogonalEdgeStyle;rounded=0;orthogonalLoop=1;jettySize=auto;html=1;entryX=0.5;entryY=0;entryDx=0;entryDy=0;entryPerimeter=0;" parent="1" source="tZUZp1OLZZN5CD4Irgr8-26" target="tZUZp1OLZZN5CD4Irgr8-19" edge="1">
          <mxGeometry relative="1" as="geometry" />
        </mxCell>
        <mxCell id="-DPr65xJuDxyK6fJzUAR-4" value="User" style="text;html=1;align=center;verticalAlign=middle;resizable=0;points=[];autosize=1;strokeColor=none;fillColor=none;" parent="1" vertex="1">
          <mxGeometry x="110" y="360" width="50" height="30" as="geometry" />
        </mxCell>
      </root>
    </mxGraphModel>
  </diagram>
</mxfile>
